<svg  viewBox="0 0 24 24" fill="none" xmlns="http://www.w3.org/2000/svg">
<g clip-path="url(#clip0_6_13216)">
<path d="M13.4901 5.48001C14.5901 5.48001 15.4901 4.58001 15.4901 3.48001C15.4901 2.38001 14.5901 1.48001 13.4901 1.48001C12.3901 1.48001 11.4901 2.38001 11.4901 3.48001C11.4901 4.58001 12.3901 5.48001 13.4901 5.48001ZM9.89014 19.38L10.8901 14.98L12.9901 16.98V22.98H14.9901V15.48L12.8901 13.48L13.4901 10.48C14.7901 11.98 16.7901 12.98 18.9901 12.98V10.98C17.0901 10.98 15.4901 9.98001 14.6901 8.58001L13.6901 6.98001C13.2901 6.38001 12.6901 5.98001 11.9901 5.98001C11.6901 5.98001 11.4901 6.08001 11.1901 6.08001L5.99014 8.28001V12.98H7.99014V9.58001L9.79014 8.88001L8.19014 16.98L3.29014 15.98L2.89014 17.98L9.89014 19.38Z" fill="current"/>
</g>
<defs>
<clipPath id="clip0_6_13216">
<rect width="24" height="24" fill="white"/>
</clipPath>
</defs>
</svg>
